PathFileType	4	(X/Y/Z)	D:\TRACE\v60_Jaco2_6-2-23\BothDRS_Motion2_3-v60.trc
DataRate	CameraRate	NumFrames	NumMarkers	Units	OrigDataRate	OrigDataStartFrame	OrigNumFrames
100.00	100.00	      35	9	mm	100.00	1876	      7500
Frame#	Time	front left toe			Front right toe			aft left toe			aft right toe			Arm			FL body			FR body			AL Body			AR Body			
		X1	Y1	Z1	X2	Y2	Z2	X3	Y3	Z3	X4	Y4	Z4	X5	Y5	Z5	X6	Y6	Z6	X7	Y7	Z7	X8	Y8	Z8	X9	Y9	Z9	

1876	18.750	-148.85281	37.25520	-167.24860	190.58824	159.94383	-203.81413	-156.21533	94.50909	435.74255	269.88745	-20.90136	441.27063	28.89272	1216.31116	-493.98947	-52.08556	603.05078	-300.16962	107.43093	600.04730	-309.60956	0.87010	522.52179	640.91821	156.03392	513.86359	631.57434	
1877	18.760	-149.46268	36.98996	-167.17188	195.02989	161.51138	-201.87230	-150.81781	96.77764	437.80432	269.38644	-20.91591	441.14795	29.08877	1215.78467	-493.10605	-52.37851	602.88440	-299.57489	107.43557	599.84094	-309.12357	2.49219	521.32159	641.79077	157.61404	512.97235	631.72821	
1878	18.770	-150.34500	37.17124	-167.12524	200.04610	160.60608	-199.98982	-144.78294	95.13046	440.33676	268.88440	-20.88679	441.14694	29.46764	1215.84631	-492.12769	-52.62312	602.63263	-299.07352	107.03786	599.61127	-308.66083	3.31153	521.09808	641.90656	159.03896	512.29218	631.99518	
1879	18.780	-151.40895	37.16962	-166.94409	204.07608	157.00845	-197.66734	-139.47441	91.09035	443.50217	267.88565	-20.88350	441.04355	28.79570	1216.07776	-491.36691	-52.66207	602.63068	-298.60007	107.01369	599.44171	-308.33798	4.44816	520.51819	642.30707	159.86191	511.76587	632.12152	
1880	18.790	-151.89699	36.90540	-166.88937	207.96718	151.61458	-195.62274	-133.22072	85.24478	446.42398	266.89679	-20.79691	441.14456	27.56179	1216.33289	-491.09009	-52.89227	602.50336	-298.17316	106.91360	599.39539	-308.26352	5.39174	520.23254	643.09216	161.58150	511.28247	632.25598	
1881	18.800	-152.83600	37.10934	-166.98756	211.20532	144.59595	-193.40257	-127.24716	78.14439	449.04706	266.57605	-20.91646	441.14590	26.78773	1216.02295	-490.27591	-52.74989	602.15460	-297.80408	107.18336	599.35498	-308.44003	6.13387	519.88745	643.78204	162.55194	510.68048	632.30811	
1882	18.810	-153.77647	37.14567	-167.04089	215.35120	136.68648	-191.61316	-122.73541	71.25662	451.58731	266.21329	-20.86992	441.19330	25.56988	1215.78760	-490.03293	-52.96595	601.97522	-297.46991	106.88932	599.23840	-308.34271	6.98450	519.45404	643.86420	163.48074	510.31232	632.31342	
1883	18.820	-154.26224	36.76786	-167.06836	219.76085	127.64512	-189.91751	-118.44151	63.85114	453.97272	265.14139	-20.98020	440.91382	25.01204	1215.54761	-489.91742	-53.34617	601.86176	-297.24060	106.50042	599.19208	-308.32510	7.85266	519.08752	644.02490	164.52316	510.09021	632.29980	
1884	18.830	-154.92896	36.45108	-167.01717	224.02887	117.21022	-188.93126	-110.59502	52.57767	457.70016	264.32339	-20.70862	440.77737	24.20942	1215.45935	-489.96021	-53.42816	601.61774	-297.15982	106.22025	599.01038	-308.33533	8.87559	518.79468	643.97772	165.26541	510.07944	632.27264	
1885	18.840	-155.86139	36.66407	-167.06009	229.22198	106.53139	-187.50287	-106.19372	43.16857	460.41049	263.99298	-20.16798	440.75638	23.27027	1215.36316	-490.08603	-53.62026	601.34399	-297.06070	105.82734	598.86047	-308.42734	9.65819	518.77991	644.14941	166.14297	510.11368	632.10046	
1886	18.850	-157.24062	36.84377	-167.18983	233.64113	95.87170	-186.25975	-101.03762	32.64340	462.91931	262.31802	-20.24221	440.64401	22.38041	1215.16895	-490.20218	-54.39206	601.07794	-297.23688	105.58186	598.84174	-308.54248	10.15017	518.25262	643.93146	166.62061	509.81802	631.97693	
1887	18.860	-157.70030	36.27295	-167.29202	237.57939	85.68713	-185.61647	-96.59061	22.00625	465.40714	261.62570	-20.03105	440.69058	21.05970	1214.57886	-490.39731	-54.88413	601.01239	-297.36154	104.80556	598.94543	-308.75537	10.57609	517.72070	643.48969	167.00087	509.51782	631.70844	
1888	18.870	-158.92522	36.09226	-167.37724	241.50890	75.54699	-185.11095	-90.48952	9.46539	467.11823	261.10013	-19.60161	440.57285	20.05366	1214.46411	-490.47366	-55.48707	600.86542	-297.65143	104.22726	598.98309	-309.14087	11.30601	517.14880	643.08191	167.68709	509.12927	630.80658	
1889	18.880	-159.70952	36.07609	-167.36952	243.44914	65.56194	-185.23555	-88.70052	-0.18457	466.43951	260.35275	-19.45005	440.51071	18.68390	1214.49634	-490.30005	-55.55733	600.65216	-297.87756	103.75140	598.92554	-309.51575	11.57409	516.66388	642.30688	168.32195	509.05719	630.49908	
1890	18.890	-160.64861	36.00154	-167.72308	245.44269	56.44059	-185.91183	-88.00536	-8.95531	464.33084	259.53928	-19.31094	440.25101	16.80821	1214.74585	-490.34668	-55.96924	600.44092	-298.17224	103.76800	599.22711	-310.10208	12.34396	516.03693	641.90900	168.83031	508.69742	630.10986	
1891	18.900	-161.23544	35.72665	-167.69789	245.30980	47.89434	-187.61211	-87.80854	-17.85117	461.73547	258.64691	-18.58775	440.23630	14.76099	1215.22095	-490.18896	-56.37645	600.27203	-298.50830	103.43053	599.45435	-310.74274	13.04186	515.30658	641.97070	169.41612	508.07379	629.32245	
1892	18.910	-162.49564	35.44476	-168.00171	244.07179	40.75742	-190.54774	-88.07005	-22.87859	457.92242	257.95767	-18.69088	440.07529	12.21169	1215.58875	-490.45901	-57.16318	600.25488	-299.22394	103.14081	599.85712	-311.64523	12.78065	514.26709	640.64911	169.69510	507.62073	628.60730	
1893	18.920	-163.00151	35.20580	-168.16580	242.97519	39.34562	-193.41052	-91.53972	-20.60592	458.13300	256.62842	-18.44348	439.88788	10.17163	1215.80554	-490.11142	-57.25969	600.22754	-299.89963	102.81521	599.93921	-312.30963	13.56087	514.12915	640.20721	170.10449	507.43658	627.15619	
1894	18.930	-163.71750	34.81649	-168.05988	242.41391	36.56798	-192.99158	-92.30447	-22.02950	458.96628	256.02966	-17.75332	440.00928	7.31994	1216.28137	-490.41550	-57.60558	600.07697	-300.67166	101.60607	599.80573	-312.91840	14.39041	515.06140	639.30322	170.71434	508.92892	626.84595	
1895	18.940	-164.79814	35.38109	-168.31720	241.79579	36.74204	-193.87315	-92.21474	-19.60482	459.14691	254.71292	-17.31860	439.66620	5.00260	1216.77661	-491.78351	-58.65934	600.40814	-301.17929	101.22512	600.78717	-313.99536	14.72067	516.24774	638.40344	170.93011	510.27301	626.07910	
1896	18.950	-165.04138	37.02274	-170.04245	241.04346	35.49166	-193.21684	-92.42817	-19.57794	459.24469	254.03867	-14.83538	438.50061	2.99278	1217.44971	-493.60883	-59.31365	600.89551	-301.45575	100.12550	601.67419	-314.16504	15.33586	517.16309	638.08856	171.21831	511.28226	625.06537	
1897	18.960	-161.99286	41.41434	-169.85631	240.26575	35.12787	-193.88867	-93.54771	-20.68895	459.59079	251.38570	-11.21133	439.15393	1.77336	1217.48560	-495.20471	-60.67346	602.26746	-302.28284	99.20387	603.00305	-315.64301	15.34600	517.09180	637.54230	171.65822	511.42004	624.52368	
1898	18.970	-158.43088	44.68927	-166.42053	238.63150	34.77901	-194.41808	-94.81477	-19.70144	458.67102	247.53540	-7.81014	443.12543	-0.17539	1216.41150	-495.71704	-61.12519	603.29285	-302.75061	98.27384	603.76318	-315.73489	15.87886	517.73083	636.36047	171.74449	511.37787	623.42383	
1899	18.980	-156.87460	54.70550	-166.18698	237.88617	34.37024	-194.61833	-95.51786	-19.51625	458.47131	243.71838	2.36796	442.53586	-2.03548	1216.93213	-496.01935	-62.15634	603.62988	-303.45151	97.48682	604.64252	-316.96881	15.35404	517.30090	636.09790	171.65007	511.86978	622.75201	
1900	18.990	-157.55580	64.37336	-166.60712	236.70818	33.77789	-195.03967	-95.82099	-19.27630	458.79681	242.06688	12.48039	441.34747	-3.86178	1218.27551	-496.33905	-62.96994	603.23975	-304.21045	96.65533	604.49561	-317.70251	14.88755	517.77734	634.84174	171.47920	512.59467	621.99951	
1901	19.000	-159.66351	77.58607	-167.81012	235.84096	33.51505	-195.16360	-97.07539	-18.45247	458.34439	242.23569	26.41819	438.88684	-5.53075	1219.54541	-496.15369	-63.60716	602.89246	-304.80466	96.09423	603.97516	-318.24347	14.92923	518.53735	634.77667	170.78435	513.02179	621.30298	
1902	19.010	-162.28403	90.53124	-169.48709	234.54755	33.01733	-195.50011	-98.74565	-17.58528	458.58112	245.09911	38.66325	436.00992	-6.68034	1220.41260	-496.07999	-64.53744	602.67426	-305.61472	95.34505	603.69928	-319.18002	13.73215	518.32916	633.91852	170.02937	512.84827	620.58154	
1903	19.020	-165.07666	103.62018	-170.75136	233.69859	32.82523	-195.45799	-101.21852	-16.40857	457.99121	248.43050	52.17731	434.33160	-7.35249	1220.09863	-496.39218	-65.08228	602.54828	-306.13489	94.55512	603.48553	-319.65689	12.38846	518.00592	632.98907	168.86130	512.46033	620.06476	
1904	19.030	-167.37201	116.56320	-171.92987	232.55490	32.37035	-195.74539	-101.53317	-16.43709	457.79071	250.04761	64.32475	431.99750	-7.04460	1219.23877	-497.32144	-66.26266	602.40936	-306.74731	94.05607	603.35632	-320.01248	11.69810	517.46973	632.62946	167.95895	512.15302	619.59924	
1905	19.040	-169.18930	128.72342	-172.64740	231.40849	31.95420	-196.01985	-102.72576	-16.04833	457.98828	250.31232	75.28819	429.84848	-6.69948	1218.43652	-498.66086	-66.69859	602.21466	-307.11777	92.83754	603.03754	-320.57346	10.77055	517.44763	632.17694	166.69725	511.82852	619.29773	
1906	19.050	-170.41713	140.41821	-173.57304	230.57381	31.73798	-196.11194	-103.53530	-15.57583	457.85471	250.58452	86.31696	428.24554	-5.90860	1217.69958	-499.60132	-67.63068	601.84619	-307.58105	91.96744	602.63055	-321.33334	9.73849	517.71246	631.99860	165.92491	511.94824	618.99731	
1907	19.060	-171.85011	150.44775	-174.20262	229.20644	31.25117	-196.16646	-104.56977	-14.81306	457.78668	248.66451	96.21599	426.49747	-5.16452	1216.95056	-500.77673	-68.77025	601.75763	-308.11966	90.92738	602.03882	-321.48178	8.45508	518.23553	631.36176	164.50273	512.21771	618.56738	
1908	19.070	-174.07265	159.19041	-174.55450	228.15912	30.90424	-196.35445	-105.90794	-14.17269	457.68613	247.74898	105.43749	425.42093	-5.11347	1216.28699	-502.20554	-69.77139	601.15161	-308.38657	90.03627	601.32330	-321.80170	7.36206	518.80865	631.00403	163.36958	512.60822	618.29681	
1909	19.080	-176.19186	164.48154	-174.23926	226.80968	30.37473	-196.61374	-107.04838	-13.77627	457.54810	245.61226	110.95045	424.55017	-5.01832	1215.48792	-502.95700	-70.83035	600.56555	-308.94479	88.96704	600.70215	-322.25281	6.26409	519.35645	630.82379	162.28709	513.04767	618.05273	
1910	19.090	-178.19086	167.22200	-173.63104	226.02382	30.10218	-196.75204	-108.34984	-13.00375	457.36539	244.66978	113.64370	424.07846	-5.37202	1215.03223	-504.14838	-71.16419	600.20520	-309.32196	87.93264	599.45575	-322.19815	4.74594	520.33026	630.45294	160.89171	513.57764	617.75555	
